<mxfile host="app.diagrams.net" modified="2023-08-12T16:53:23.684Z" agent="Mozilla/5.0 (Windows NT 10.0; Win64; x64) AppleWebKit/537.36 (KHTML, like Gecko) Chrome/115.0.0.0 Safari/537.36" etag="gsm1Dip8szyADYFCeBZz" version="21.6.6" type="device">
  <diagram name="PÃ¡gina-1" id="PnFke3GCH2YxdIMM-IYn">
    <mxGraphModel dx="1035" dy="553" grid="1" gridSize="10" guides="1" tooltips="1" connect="1" arrows="1" fold="1" page="1" pageScale="1" pageWidth="827" pageHeight="1169" math="0" shadow="0">
      <root>
        <mxCell id="0" />
        <mxCell id="1" parent="0" />
        <mxCell id="Dyu-HOArihcO8BmIo8gu-1" value="inicio&amp;nbsp;" style="rounded=1;whiteSpace=wrap;html=1;" vertex="1" parent="1">
          <mxGeometry x="300" y="50" width="120" height="60" as="geometry" />
        </mxCell>
        <mxCell id="Dyu-HOArihcO8BmIo8gu-2" value="" style="endArrow=classic;html=1;rounded=0;" edge="1" parent="1">
          <mxGeometry width="50" height="50" relative="1" as="geometry">
            <mxPoint x="360" y="110" as="sourcePoint" />
            <mxPoint x="360" y="180" as="targetPoint" />
            <Array as="points">
              <mxPoint x="360" y="130" />
              <mxPoint x="360" y="140" />
            </Array>
          </mxGeometry>
        </mxCell>
        <mxCell id="Dyu-HOArihcO8BmIo8gu-3" value="sumas aseguradas&amp;nbsp;&lt;br&gt;porcentaje&lt;br&gt;socio 1&lt;br&gt;socio 2&lt;br&gt;porcentaje especial&amp;nbsp;" style="shape=parallelogram;perimeter=parallelogramPerimeter;whiteSpace=wrap;html=1;fixedSize=1;" vertex="1" parent="1">
          <mxGeometry x="272" y="180" width="176" height="80" as="geometry" />
        </mxCell>
        <mxCell id="Dyu-HOArihcO8BmIo8gu-4" value="Realizar la suma de porcentajes dependiendo de la cantidad asegurada" style="shape=tape;whiteSpace=wrap;html=1;" vertex="1" parent="1">
          <mxGeometry x="261" y="301" width="200" height="180" as="geometry" />
        </mxCell>
        <mxCell id="Dyu-HOArihcO8BmIo8gu-5" value="" style="endArrow=classic;html=1;rounded=0;" edge="1" parent="1" source="Dyu-HOArihcO8BmIo8gu-3" target="Dyu-HOArihcO8BmIo8gu-4">
          <mxGeometry width="50" height="50" relative="1" as="geometry">
            <mxPoint x="320" y="330" as="sourcePoint" />
            <mxPoint x="370" y="280" as="targetPoint" />
          </mxGeometry>
        </mxCell>
        <mxCell id="Dyu-HOArihcO8BmIo8gu-6" value="Cantidad y resultado&amp;nbsp;" style="rounded=1;whiteSpace=wrap;html=1;" vertex="1" parent="1">
          <mxGeometry x="290" y="530" width="120" height="60" as="geometry" />
        </mxCell>
        <mxCell id="Dyu-HOArihcO8BmIo8gu-7" value="" style="endArrow=classic;html=1;rounded=0;exitX=0.445;exitY=0.878;exitDx=0;exitDy=0;exitPerimeter=0;" edge="1" parent="1" source="Dyu-HOArihcO8BmIo8gu-4" target="Dyu-HOArihcO8BmIo8gu-6">
          <mxGeometry width="50" height="50" relative="1" as="geometry">
            <mxPoint x="360" y="510" as="sourcePoint" />
            <mxPoint x="370" y="380" as="targetPoint" />
            <Array as="points">
              <mxPoint x="360" y="500" />
            </Array>
          </mxGeometry>
        </mxCell>
        <mxCell id="Dyu-HOArihcO8BmIo8gu-9" value="Fin" style="rounded=1;whiteSpace=wrap;html=1;" vertex="1" parent="1">
          <mxGeometry x="300" y="640" width="120" height="60" as="geometry" />
        </mxCell>
        <mxCell id="Dyu-HOArihcO8BmIo8gu-10" value="" style="endArrow=classic;html=1;rounded=0;exitX=0.5;exitY=1;exitDx=0;exitDy=0;entryX=0.5;entryY=0;entryDx=0;entryDy=0;" edge="1" parent="1" source="Dyu-HOArihcO8BmIo8gu-6" target="Dyu-HOArihcO8BmIo8gu-9">
          <mxGeometry width="50" height="50" relative="1" as="geometry">
            <mxPoint x="390" y="670" as="sourcePoint" />
            <mxPoint x="440" y="620" as="targetPoint" />
          </mxGeometry>
        </mxCell>
      </root>
    </mxGraphModel>
  </diagram>
</mxfile>
